<?xml version="1.0" encoding="utf-8"?>
<!-- Generator: Adobe Illustrator 26.5.0, SVG Export Plug-In . SVG Version: 6.00 Build 0)  -->
<svg version="1.1" id="Logos" xmlns="http://www.w3.org/2000/svg" xmlns:xlink="http://www.w3.org/1999/xlink" x="0px" y="0px"
	 viewBox="0 0 300 300" style="enable-background:new 0 0 300 300;" xml:space="preserve">
<style type="text/css">
	.st0{fill:url(#SVGID_1_);}
	.st1{fill:url(#SVGID_00000036931012573426967070000000931951317215502002_);}
	.st2{fill:url(#SVGID_00000163783870052878158280000007649453254444093330_);}
	.st3{fill:url(#SVGID_00000158739367523617371320000007334472773418826161_);}
	.st4{fill:url(#SVGID_00000127016883469927582270000007583842823245073794_);}
	.st5{fill:url(#SVGID_00000050664373839573815800000003254363308144903067_);}
	.st6{fill:url(#SVGID_00000123415478494302452100000011132000708506229420_);}
	.st7{fill:url(#SVGID_00000024700520074661026520000016919990361347435407_);}
	.st8{fill:url(#SVGID_00000051380323944906129260000017637628845004154538_);}
	.st9{fill:#343633;}
	.st10{font-family:'SimplyRounded';}
	.st11{font-size:65px;}
</style>
<symbol  id="RS" viewBox="-40.5 -53.5 80.9 107">
	<g>
		<linearGradient id="SVGID_1_" gradientUnits="userSpaceOnUse" x1="12.8692" y1="-7.1248" x2="-6.3392" y2="26.3123">
			<stop  offset="0" style="stop-color:#F9808E"/>
			<stop  offset="0.24" style="stop-color:#F57080"/>
			<stop  offset="0.7" style="stop-color:#EB495B"/>
			<stop  offset="0.91" style="stop-color:#E73549"/>
		</linearGradient>
		<path class="st0" d="M13.6,8.1c-0.2,0.4-0.4,0.7-0.7,1.1c-2.8,5-6.9,12.7-9.7,20.2c-0.2,0.6-0.5,1.3-0.7,1.9
			c-3.6-5-7.8-10.1-10.7-14.1C-6.5,8.7-1.9-1.9,4-12.2L7.2-7c0.2,0.3,0.4,0.7,0.6,1C10.1-2.2,12.6,2.2,13.6,8.1L13.6,8.1z"/>
		
			<linearGradient id="SVGID_00000052089981993442848550000006989583125018271892_" gradientUnits="userSpaceOnUse" x1="1.724" y1="-17.3295" x2="-12.376" y2="15.0205">
			<stop  offset="0" style="stop-color:#F88594"/>
			<stop  offset="0.18" style="stop-color:#F37182"/>
			<stop  offset="0.62" style="stop-color:#EA4558"/>
			<stop  offset="0.84" style="stop-color:#E73549"/>
		</linearGradient>
		<path style="fill:url(#SVGID_00000052089981993442848550000006989583125018271892_);" d="M4-12.2C-1.9-1.9-6.5,8.7-8.1,17.3
			c-1.1-1.5-2-2.9-2.6-4c-0.1-0.1-0.1-0.3-0.2-0.4c0,0,0-0.1-0.1-0.1c0,0,0-0.1,0-0.1c0,0,0,0,0,0c0,0,0,0,0,0
			c-0.1-0.1-0.1-0.2-0.2-0.3c0,0,0-0.1,0-0.1c-0.2-0.3-0.4-0.7-0.5-1c0,0,0,0,0-0.1c-0.1-0.2-0.3-0.5-0.4-0.7s-0.3-0.5-0.4-0.7
			c-0.1-0.2-0.2-0.3-0.3-0.5c-0.2-0.4-0.4-0.8-0.6-1.1c1.1-6,3.5-10.3,5.8-14.1c0.2-0.3,0.4-0.7,0.6-1L0-18.7L4-12.2L4-12.2z"/>
		
			<linearGradient id="SVGID_00000028310046644321945050000003355639840351516863_" gradientUnits="userSpaceOnUse" x1="18.7486" y1="16.208" x2="0.3561" y2="48.2523">
			<stop  offset="6.000000e-02" style="stop-color:#F9808E"/>
			<stop  offset="0.32" style="stop-color:#F37080"/>
			<stop  offset="0.81" style="stop-color:#E3495E"/>
			<stop  offset="0.83" style="stop-color:#E3485D"/>
		</linearGradient>
		<path style="fill:url(#SVGID_00000028310046644321945050000003355639840351516863_);" d="M14.1,18l-1.8,23.3
			c0,2.7-0.9,5.2-2.4,7.3c2-3.2-2.1-10-7.3-17.2c0.2-0.6,0.5-1.3,0.7-1.9c2.9-7.6,6.9-15.3,9.7-20.2c0.2-0.4,0.4-0.8,0.7-1.1
			C14.1,11,14.4,14.3,14.1,18z"/>
		
			<linearGradient id="SVGID_00000181063260939522331980000015017516001653504391_" gradientUnits="userSpaceOnUse" x1="28.0977" y1="-52.6528" x2="-16.1623" y2="13.9572">
			<stop  offset="0.13" style="stop-color:#EC1622"/>
			<stop  offset="0.81" style="stop-color:#9B286D"/>
		</linearGradient>
		<path style="fill:url(#SVGID_00000181063260939522331980000015017516001653504391_);" d="M34.5-51.8C26.9-46.2,13.8-29.6,4-12.2
			l-4-6.5l17.7-28.8C21.2-53.3,28.7-55.2,34.5-51.8z"/>
		
			<linearGradient id="SVGID_00000082351966863226919310000001554947393555880118_" gradientUnits="userSpaceOnUse" x1="40.388" y1="-44.7164" x2="9.318" y2="6.0736">
			<stop  offset="0.13" style="stop-color:#EC1622"/>
			<stop  offset="0.81" style="stop-color:#E73549"/>
		</linearGradient>
		<path style="fill:url(#SVGID_00000082351966863226919310000001554947393555880118_);" d="M34.5-51.8C26.9-46.2,13.8-29.6,4-12.2
			L7.2-7c0.2,0.3,0.4,0.7,0.6,1c2.3,3.8,4.8,8.1,5.8,14.1l0,0c0.5,2.9,0.7,6.1,0.4,9.9l-0.7,8.6c0.8-9.1,3.6-24.2,8.8-33.1L38.7-35
			C42.2-40.8,40.3-48.3,34.5-51.8L34.5-51.8z"/>
		
			<linearGradient id="SVGID_00000110464301353617295950000015031990950653227144_" gradientUnits="userSpaceOnUse" x1="-11.2764" y1="-45.6255" x2="-23.8963" y2="-23.6558">
			<stop  offset="0.34" style="stop-color:#FEBC43"/>
			<stop  offset="1" style="stop-color:#FC784E"/>
		</linearGradient>
		<path style="fill:url(#SVGID_00000110464301353617295950000015031990950653227144_);" d="M0-18.7l-4,6.5
			c-9.8-17.3-22.9-34-30.5-39.5c5.8-3.5,13.3-1.6,16.8,4.2L0-18.7L0-18.7z"/>
		
			<linearGradient id="SVGID_00000138569714699084346560000011026196089081002930_" gradientUnits="userSpaceOnUse" x1="-17.4613" y1="-41.2882" x2="-31.2713" y2="-2.0882">
			<stop  offset="0.34" style="stop-color:#FEBC43"/>
			<stop  offset="1" style="stop-color:#FC784E"/>
		</linearGradient>
		<path style="fill:url(#SVGID_00000138569714699084346560000011026196089081002930_);" d="M-4-12.2L-7.2-7c-0.2,0.3-0.4,0.7-0.6,1
			c-2.3,3.8-4.8,8.1-5.8,14.1c-0.2-0.4-0.5-0.8-0.7-1.2c-0.2-0.3-0.4-0.6-0.5-0.9C-14.9,6-15,5.9-15.1,5.7l-7.1-12.2L-38.7-35
			c-3.5-5.8-1.6-13.3,4.2-16.8C-26.9-46.2-13.8-29.6-4-12.2L-4-12.2z"/>
		
			<linearGradient id="SVGID_00000019656074705826681160000018226451299322215810_" gradientUnits="userSpaceOnUse" x1="-2.9924" y1="0.8358" x2="-20.3848" y2="46.6622">
			<stop  offset="0.4" style="stop-color:#9D4394"/>
			<stop  offset="0.81" style="stop-color:#896EAA"/>
		</linearGradient>
		<path style="fill:url(#SVGID_00000019656074705826681160000018226451299322215810_);" d="M-1.1,53.5c-3.6-0.3-6.8-2.2-8.8-4.9
			c-1.5-2-2.4-4.6-2.4-7.3l-1.1-13.8c0-0.3,0-0.6-0.1-0.9c-0.8-9.1-3.6-24.2-8.8-33.1l7.1,12.2c0.1,0.1,0.1,0.2,0.2,0.3
			c0.2,0.3,0.3,0.6,0.5,0.9c0.2,0.4,0.4,0.8,0.7,1.2c0.2,0.4,0.4,0.7,0.6,1.1c0.6,1,1.2,2.2,1.9,3.4C-7,23.3-1.4,35.2-1.1,53.5
			L-1.1,53.5z"/>
		
			<linearGradient id="SVGID_00000027565514866864214860000014257499738744680875_" gradientUnits="userSpaceOnUse" x1="1.6471" y1="39.8197" x2="-5.1129" y2="18.0697">
			<stop  offset="0.17" style="stop-color:#896EAA"/>
			<stop  offset="0.64" style="stop-color:#9863AA"/>
			<stop  offset="0.96" style="stop-color:#A55AAB"/>
		</linearGradient>
		<path style="fill:url(#SVGID_00000027565514866864214860000014257499738744680875_);" d="M-11.1,12.7C-7,20.7,14,42.2,9.8,48.6
			c-2.3,3.5-7.2,4.9-8.8,4.9h-2.1C-1.3,35.2-7,23.3-11.1,12.7z"/>
	</g>
</symbol>
<text transform="matrix(1 0 0 1 170.02 200.04)" class="st9 st10 st11">rs</text>
<g>
	
		<use xlink:href="#RS"  width="80.9" height="107" x="-40.5" y="-53.5" transform="matrix(1 0 0 1 140.9476 146.2888)" style="overflow:visible;"/>
</g>
</svg>
